<?xml version="1.0" encoding="utf-8"?>
<!-- Svg Vector Icons : http://www.onlinewebfonts.com/icon -->
<!DOCTYPE svg PUBLIC "-//W3C//DTD SVG 1.1//EN" "http://www.w3.org/Graphics/SVG/1.1/DTD/svg11.dtd">
<svg version="1.1" xmlns="http://www.w3.org/2000/svg" xmlns:xlink="http://www.w3.org/1999/xlink" x="0px" y="0px" viewBox="0 0 1000 1000" enable-background="new 0 0 1000 1000" xml:space="preserve">
<metadata> Svg Vector Icons : http://www.onlinewebfonts.com/icon </metadata>
<g><g transform="translate(0.000000,511.000000) scale(0.100000,-0.100000)"><path d="M100,1146.6v-3109.6h753.8h753.8v-881.6v-881.6l60.7-60.7c69.1-69.1,155-79.6,228.2-29.3c25.1,18.9,414.6,441.8,864.8,942.3l818.8,910.9h2217.6h2217.6v3109.6v3109.6H4057.7H100V1146.6z M7638.5,1146.6v-2732.7H5561.2c-1143.3,0-2100.3-6.3-2125.4-12.6c-25.1-6.3-360.2-362.3-743.4-787.4l-697.3-776.9l-10.5,739.2l-10.5,737.1l-58.6,50.2l-58.6,50.3h-691H476.9v2732.7v2732.7h3580.8h3580.8V1146.6z"/><path d="M1926,2158c-31.4-31.4-31.4-106.8,0-138.2c18.8-18.9,542.3-25.1,2228-25.1c1976.8,0,2207.1,4.2,2236.4,33.5c39.8,37.7,41.9,58.6,12.6,115.2c-20.9,39.8-69.1,39.8-2236.4,39.8C2470.4,2183.1,1944.8,2176.8,1926,2158z"/><path d="M1926,1404.1c-31.4-31.4-31.4-106.8,0-138.2c18.8-18.9,542.3-25.1,2228-25.1c1976.8,0,2207.1,4.2,2236.4,33.5c41.9,41.9,41.9,79.6,0,121.5c-29.3,29.3-259.7,33.5-2236.4,33.5C2468.3,1429.3,1944.8,1423,1926,1404.1z"/><path d="M1926,650.3c-31.4-31.4-31.4-106.8,0-138.2c18.8-18.9,542.3-25.1,2228-25.1c1976.8,0,2207.1,4.2,2236.4,33.5c41.9,41.9,41.9,79.6,0,121.5c-29.3,29.3-259.7,33.5-2236.4,33.5C2468.3,675.4,1944.8,669.1,1926,650.3z"/><path d="M8484.5,455.5c-25.1-16.7-56.5-56.5-69.1-90c-33.5-81.7,14.7-205.2,92.1-234.5c31.4-12.6,268-20.9,536.1-20.9h479.5v-1413.5v-1413.5h-293.2c-435.5,0-460.7-20.9-460.7-416.7l-2.1-222l-309.9,320.4l-309.9,318.3H7043.7H5942.3v222c0,215.7-2.1,222-60.7,282.7c-64.9,64.9-111,73.3-198.9,39.8c-102.6-37.7-121.4-115.2-113.1-485.8l6.3-335l58.6-50.3l58.6-50.3h1149.6h1147.5l330.8-349.7c575.8-609.4,557-592.6,640.8-592.6c41.9,0,96.3,16.7,123.5,39.8c48.2,39.8,50.3,50.3,60.7,467l10.5,425.1l330.8,10.5c318.3,10.5,335,12.6,372.7,60.7c37.7,46,39.8,106.8,39.8,1733.8V384.3l-54.4,50.3l-56.5,52.3h-630.3C8639.4,486.9,8520,480.7,8484.5,455.5z"/></g></g>
</svg>