<?xml version="1.0" encoding="utf-8"?>
<!-- Svg Vector Icons : http://www.onlinewebfonts.com/icon -->
<!DOCTYPE svg PUBLIC "-//W3C//DTD SVG 1.1//EN" "http://www.w3.org/Graphics/SVG/1.1/DTD/svg11.dtd">
<svg version="1.1" xmlns="http://www.w3.org/2000/svg" xmlns:xlink="http://www.w3.org/1999/xlink" x="0px" y="0px" viewBox="0 0 1000 1000" enable-background="new 0 0 1000 1000" xml:space="preserve">
<metadata> Svg Vector Icons : http://www.onlinewebfonts.com/icon </metadata>
<g><g transform="translate(0.000000,511.000000) scale(0.100000,-0.100000)"><path d="M1311,5047.2c-40-46.1-30.8-378.4,18.5-667.5l21.5-116.9H892.6c-522.9,0-627.5-30.8-735.2-215.3c-160-279.9,33.8-1408.9,338.4-1953.4c252.3-452.2,686-735.2,1372-898.2l359.9-86.1l144.6-276.9c492.2-938.2,1132-1578.1,1818-1818c160-55.4,160-55.4,178.4-209.2c33.8-304.5-61.5-710.6-236.9-1012c-73.8-123-98.4-138.4-276.9-187.7c-390.7-107.7-759.8-326.1-882.9-526l-67.7-107.7h-424.5c-390.7,0-430.7-6.2-461.4-58.5c-18.5-36.9-30.8-366-30.8-855.2c0-670.6,6.2-806,49.2-864.4l46.1-67.7h2888.5c2584,0,2891.6,6.2,2934.7,49.2c43,40,49.2,163.1,49.2,861.3c0,504.5-12.3,839.8-30.8,876.7c-30.8,52.3-67.7,58.5-412.2,58.5c-375.3,0-378.4,0-421.4,80c-113.8,212.3-513.7,461.4-901.3,556.8c-184.6,43-209.2,58.4-276.8,178.4c-147.7,249.2-233.8,572.2-233.8,867.5c0,147.6,12.3,286.1,24.6,301.4c12.3,18.5,83.1,58.5,160,92.3c630.6,276.9,1252,959.8,1716.5,1879.5l95.4,187.6l163,18.4c513.7,61.5,1104.3,313.8,1381.2,587.5c313.8,310.7,529.1,793.7,627.5,1412c70.7,452.2,70.7,787.5-3.1,916.7c-104.6,181.5-209.2,212.3-732.1,212.3h-455.3l15.4,70.7c9.2,36.9,40,196.9,67.7,356.8c46.1,267.6,46.1,292.2-3.1,344.5c-52.3,55.4-166.1,58.4-3719.1,58.4C1766.3,5093.4,1344.8,5087.2,1311,5047.2z M8447.7,4770.4c0-80-184.6-941.3-292.2-1356.6C7537.1,999,6589.7-477.5,5476.1-763.6c-243-61.5-713.7-64.6-950.5-3.1C3522.8-511.4,2759.9,408.4,2187.7,2054.1c-230.7,661.4-476.8,1747.3-584.5,2571.7l-21.5,160h3433C6903.4,4785.8,8447.7,4779.6,8447.7,4770.4z M1461.7,3610.7c104.6-535.2,289.2-1224.3,458.3-1707.3c86.1-243,141.5-439.9,123-439.9c-101.5,0-443,113.8-661.4,218.4C781.9,1971.1,502,2521.7,403.5,3607.6c-30.8,353.8-40,347.6,519.9,347.6h470.7L1461.7,3610.7z M9585.8,3890.6c46.1-86.1-12.3-658.3-110.7-1036.7c-156.9-624.5-399.9-956.7-852.1-1172c-218.4-104.6-750.6-267.6-781.4-240c-6.2,6.2,58.5,190.7,141.5,409.1c184.6,486,341.4,990.5,482.9,1581.1c61.5,246.1,116.9,464.5,123,486c6.2,27.7,132.3,36.9,486.1,36.9C9527.4,3955.2,9555.1,3952.1,9585.8,3890.6z M5479.2-1972.6c46.1-138.4,141.5-341.4,212.3-446l126.1-193.8l246.1-61.5c273.8-70.8,476.8-160,615.2-276.9l92.3-73.8l-1728.8-3.1c-953.6,0-1731.9,9.2-1731.9,18.4c0,76.9,412.2,273.8,698.3,338.4c212.3,46.1,224.6,55.4,313.8,190.7c227.6,359.9,341.5,719.8,341.5,1104.4v252.2l347.6,9.2l344.5,9.2l18.5-307.6C5390-1625,5420.8-1800.3,5479.2-1972.6z M7647.9-3935.1v-630.6H4971.6H2295.4v609.1c0,335.3,9.2,621.4,21.5,630.6c9.2,12.3,1215.1,21.5,2676.3,21.5h2654.7V-3935.1z"/><path d="M5060.8,3672.2c-24.6-21.5-116.9-187.6-199.9-369.1c-172.3-375.3-83-323-673.7-403c-261.5-33.8-276.9-40-307.6-123c-27.7-86.1-15.4-101.5,255.3-366.1c153.8-150.7,283-298.4,283-329.1c0-33.8-27.7-193.8-61.5-359.9c-110.7-526-43.1-572.2,452.2-301.5c181.5,101.5,341.4,178.4,359.9,172.3c15.4-6.2,166.1-86.1,332.2-178.4c310.7-172.3,384.5-193.8,449.1-129.2c52.3,52.3,46.1,144.6-27.7,516.8l-61.5,323l276.9,261.5c215.3,199.9,279.9,279.9,279.9,341.5c0,46.1-18.4,95.4-40,113.8c-21.5,18.5-203,55.4-403,80c-203,27.7-375.3,55.4-381.5,64.6c-9.2,9.2-95.4,172.3-187.6,363C5226.9,3702.9,5168.5,3761.4,5060.8,3672.2z M5260.8,2958.5c58.4-126.1,129.2-243,163-258.4c30.8-15.4,156.9-40,283-52.3l224.6-21.5l-193.8-196.9l-193.8-193.8l40-249.2c24.6-135.4,33.8-255.3,27.7-264.6c-9.2-6.1-101.5,33.8-209.2,95.4c-104.6,58.4-218.4,107.7-252.2,107.7c-33.8,0-150.7-49.2-258.4-110.7c-110.7-61.5-206.1-104.6-215.3-98.4c-6.1,9.2,6.2,113.8,33.8,236.9c24.6,123,46.1,236.9,46.1,255.3c0,18.4-92.3,120-206.1,224.6l-206.1,193.8l230.7,21.5c123,12.3,255.3,33.8,292.2,46.1c40,15.4,101.5,110.7,169.2,258.4c58.4,129.2,107.7,233.8,113.8,233.8C5153.1,3186.2,5205.4,3084.6,5260.8,2958.5z"/></g></g>
</svg>