<?xml version="1.0" encoding="utf-8"?>
<!-- Svg Vector Icons : http://www.onlinewebfonts.com/icon -->
<!DOCTYPE svg PUBLIC "-//W3C//DTD SVG 1.1//EN" "http://www.w3.org/Graphics/SVG/1.1/DTD/svg11.dtd">
<svg version="1.1" xmlns="http://www.w3.org/2000/svg" xmlns:xlink="http://www.w3.org/1999/xlink" x="0px" y="0px" viewBox="0 0 1000 1000" enable-background="new 0 0 1000 1000" xml:space="preserve">
<metadata> Svg Vector Icons : http://www.onlinewebfonts.com/icon </metadata>
<g><g transform="translate(0.000000,511.000000) scale(0.100000,-0.100000)"><path d="M1103,4959.8c-25.8-27.9-47.3-75.2-47.3-105.3c0-30.1,154.7-427.6,343.8-885.4c189.1-457.7,343.8-835.9,343.8-840.2c0-6.4-251.4-10.7-558.7-10.7H623.8l-51.6-53.7c-64.5-62.3-68.8-159-12.9-227.8l40.8-51.6l649-10.7l649-10.7l1029.3-2482c565.2-1364.6,1029.3-2486.3,1029.3-2492.8s-60.2-55.9-133.2-107.5c-335.2-245-554.4-676.9-554.4-1096c0-750,625.3-1375.3,1375.3-1375.3c780.1,0,1424.8,679.1,1364.6,1439.8c-6.4,101-15,210.6-17.2,242.8l-4.3,62.3l1601,664C8620-1955.5,9202.4-1702,9228.2-1671.9c19.3,25.8,36.5,68.8,36.5,98.9c0,58-107.5,178.4-159,178.4c-19.3,0-760.7-300.9-1650.4-668.3c-1527.9-633.9-1616-666.2-1644-629.6c-324.5,457.7-750,681.2-1231.3,642.5c-101-6.4-210.6-15-242.8-17.2l-62.3-4.3l-1444.1,3492C2035.6,3341.6,1365.2,4934,1339.4,4961.9C1277.1,5026.4,1165.3,5026.4,1103,4959.8z M4891.6-2415.4c550.1-144,891.8-707,752.1-1242.1c-96.7-371.8-382.5-659.7-752.1-756.4c-539.4-139.7-1102.4,202-1246.4,752.1C3453.9-2924.7,4154.5-2224.2,4891.6-2415.4z"/><path d="M4472.6-3118.1c-105.3-73.1-154.7-152.6-165.5-268.6c-21.5-249.3,221.4-429.8,457.7-339.5c141.8,53.7,212.7,156.9,212.7,313.7c0,92.4-10.7,139.7-45.1,184.8c-75.2,103.1-176.2,156.9-288,156.9C4575.7-3070.8,4522-3085.9,4472.6-3118.1z"/><path d="M4128.7,3259.9c-608.1-253.6-1132.5-479.2-1164.7-507.2c-40.8-30.1-60.2-66.6-60.2-107.4c0-94.6,917.6-2299.4,982.1-2357.4c27.9-27.9,73.1-49.4,98.8-49.4c79.5,0,2320.9,939.1,2363.8,990.7c19.3,25.8,36.5,66.6,36.5,92.4c0,64.5-921.9,2292.9-973.5,2350.9c-27.9,30.1-68.8,47.3-109.6,47.3C5265.5,3717.7,4736.9,3511.4,4128.7,3259.9z M5611.5,2338.1c212.7-515.7,363.2-906.9,352.4-917.6C5940.3,1399,4178.1,666.2,4118,653.3c-38.7-6.4-86,96.7-427.6,926.2c-210.6,513.6-382.5,941.2-382.5,949.8c0,8.6,425.5,191.3,943.4,406.2c913.3,378.2,941.2,389,964.9,346C5229,3255.6,5407.3,2832.3,5611.5,2338.1z"/><path d="M6254,788.7C5110.8,315.9,4156.6-92.4,4130.9-113.9c-25.8-23.6-45.1-66.6-45.1-98.8c0-77.4,505-1293.7,552.3-1325.9c55.9-43,171.9-34.4,221.3,15c25.8,25.8,43,70.9,43,113.9s-86,277.2-204.1,560.9C4586.4-580.2,4494-348.1,4494-335.2c2.1,34.4,3780,1594.5,3801.5,1570.9c25.8-30.1,784.4-1878.2,773.6-1884.6c-4.3-4.3-681.2-285.8-1502.1-625.4c-1542.9-636.1-1590.2-659.7-1590.2-777.9c0-73.1,90.3-159,165.5-159c32.2,0,775.8,296.6,1650.4,657.6C9389.3-894,9479.6-851,9479.6-752.1c0,70.9-945.5,2331.6-992.8,2372.4c-23.6,19.3-68.8,36.5-101,34.4C8355.7,1652.5,7395.1,1263.6,6254,788.7z"/></g></g>
</svg>