<?xml version="1.0" standalone="no"?>
<!DOCTYPE svg PUBLIC "-//W3C//DTD SVG 20010904//EN"
 "http://www.w3.org/TR/2001/REC-SVG-20010904/DTD/svg10.dtd">
<svg version="1.0" xmlns="http://www.w3.org/2000/svg"
 width="70.000000pt" height="70.000000pt" viewBox="0 0 70.000000 70.000000"
 preserveAspectRatio="xMidYMid meet">

<g transform="translate(0.000000,70.000000) scale(0.100000,-0.100000)"
fill="#000000" stroke="none">
<path d="M92 538 c-39 -39 -72 -79 -72 -88 0 -9 19 -34 43 -56 75 -72 281
-240 316 -258 53 -28 132 -31 223 -11 l80 19 -5 40 c-7 49 -31 71 -87 80 -69
11 -96 32 -155 121 -67 101 -86 114 -115 85 -15 -15 -25 -18 -38 -11 -30 16
-53 47 -71 97 -9 27 -23 50 -32 52 -8 1 -47 -30 -87 -70z m103 15 c5 -27 24
-55 65 -98 32 -33 78 -81 102 -106 35 -37 57 -50 123 -72 44 -14 97 -29 118
-32 20 -4 37 -12 37 -17 0 -7 -31 -9 -89 -6 -103 6 -153 26 -225 90 -77 67
-184 232 -172 264 11 27 34 14 41 -23z m-30 -55 c63 -121 160 -223 252 -265
47 -22 71 -26 150 -26 66 0 90 -4 83 -11 -6 -6 -54 -11 -113 -11 -120 0 -136
7 -283 129 -84 69 -92 79 -98 118 -4 24 -13 56 -21 72 -17 32 -19 46 -6 46 5
0 21 -24 36 -52z m-39 -14 c8 -20 14 -45 12 -56 -3 -17 -7 -15 -42 17 -38 34
-38 36 -21 55 25 28 34 25 51 -16z m230 -266 c72 -49 143 -64 231 -48 45 7 69
8 76 1 30 -30 -200 -55 -263 -29 -32 14 -327 253 -358 291 -8 9 -11 21 -8 26
4 6 65 -38 137 -97 72 -59 155 -124 185 -144z m9 243 c6 -11 -33 -26 -43 -16
-4 3 0 10 8 15 19 12 27 12 35 1z m18 -38 c-18 -7 -16 -23 2 -23 9 0 12 -6 8
-17 -5 -12 -2 -15 10 -10 9 3 17 2 17 -2 0 -5 -6 -12 -12 -14 -7 -3 -3 -6 8
-6 12 -1 29 -13 39 -27 16 -26 16 -26 -7 -19 -33 10 -86 54 -110 93 l-20 32
39 -1 c21 0 32 -3 26 -6z"/>
</g>
</svg>
